<?xml version="1.0" standalone="no"?>
<!DOCTYPE svg PUBLIC "-//W3C//DTD SVG 20010904//EN"
 "http://www.w3.org/TR/2001/REC-SVG-20010904/DTD/svg10.dtd">
<svg version="1.0" xmlns="http://www.w3.org/2000/svg"
 width="900.000000pt" height="520.000000pt" viewBox="0 0 900.000000 520.000000"
 preserveAspectRatio="xMidYMid meet">

<g transform="translate(0.000000,520.000000) scale(0.100000,-0.100000)"
fill="#000000" stroke="none">
<path d="M4405 4765 c-292 -66 -589 -320 -846 -720 -191 -298 -366 -704 -474
-1100 -84 -309 -113 -483 -122 -725 -5 -142 -2 -183 17 -294 37 -222 85 -364
178 -531 51 -92 142 -228 142 -212 0 3 -29 53 -63 109 -154 249 -233 505 -243
783 -4 109 -3 127 8 110 11 -18 14 -9 20 70 12 162 51 423 68 455 5 9 7 20 4
23 -3 3 -1 14 5 25 6 12 13 37 15 56 3 19 12 56 20 80 9 25 25 78 36 118 37
136 130 388 142 388 4 0 8 -4 8 -8 0 -24 129 -221 181 -277 197 -210 397 -292
960 -395 281 -52 356 -79 474 -177 230 -189 315 -501 215 -787 -65 -188 -223
-349 -412 -420 -66 -25 -186 -51 -195 -42 -3 2 14 14 37 26 52 26 136 103 158
145 15 26 18 81 22 415 6 434 5 428 84 496 40 34 40 36 21 50 -56 43 -101 58
-187 62 -102 5 -179 -15 -242 -63 -46 -35 -109 -112 -103 -128 1 -5 23 -15 48
-22 101 -25 199 -110 247 -213 23 -49 27 -70 27 -152 0 -82 -4 -103 -27 -152
-29 -63 -93 -137 -145 -169 -20 -12 -66 -31 -103 -43 -56 -17 -73 -27 -92 -56
-32 -49 -101 -83 -152 -75 -60 9 -99 31 -169 95 -110 101 -179 233 -193 368
-6 52 -4 61 17 85 46 52 130 52 167 -1 10 -15 22 -49 25 -75 15 -107 80 -199
172 -243 65 -31 172 -33 238 -5 135 58 208 203 173 342 -34 129 -113 197 -272
230 -136 29 -420 123 -523 173 -83 40 -149 94 -198 161 l-21 30 -21 -47 c-58
-129 -89 -349 -72 -511 31 -282 121 -481 309 -678 140 -148 294 -247 467 -302
131 -42 192 -51 355 -51 163 0 222 8 355 51 297 95 575 352 691 638 69 169 78
218 78 445 0 177 -3 215 -21 280 -103 371 -375 716 -706 898 -42 23 -177 83
-299 133 -645 264 -792 329 -933 421 -77 49 -155 118 -155 135 0 7 22 40 49
75 26 35 55 77 64 93 9 17 26 41 39 55 13 14 45 52 72 84 88 104 208 216 279
261 18 10 35 24 39 30 4 5 8 6 8 1 0 -5 8 -2 18 6 16 14 70 43 122 66 141 62
332 76 470 33 80 -25 195 -80 247 -118 17 -13 35 -23 39 -23 11 0 140 -115
203 -179 29 -31 80 -90 112 -131 33 -41 64 -80 69 -87 6 -7 10 -17 10 -23 0
-5 5 -10 10 -10 6 0 10 -6 10 -14 0 -8 3 -16 8 -18 9 -4 62 -75 62 -83 0 -3
11 -21 24 -38 13 -18 36 -54 50 -82 15 -27 40 -72 56 -100 16 -27 33 -59 38
-70 44 -92 81 -174 87 -195 4 -14 20 -51 36 -84 16 -32 28 -61 27 -65 -1 -3 6
-24 16 -46 10 -22 35 -94 56 -160 21 -66 48 -147 59 -180 24 -72 71 -249 67
-252 -2 -2 -15 21 -31 49 -116 217 -352 474 -561 614 -107 72 -239 136 -347
169 -91 29 -127 56 -127 98 0 12 18 51 40 87 46 76 75 189 65 254 -9 58 -42
155 -65 194 -23 38 -34 35 -102 -26 -67 -60 -83 -102 -83 -214 0 -54 0 -98 -1
-98 0 0 -25 24 -55 53 -59 56 -136 90 -236 102 -55 6 -206 -9 -247 -25 l-24
-9 19 -51 c53 -141 183 -283 316 -345 77 -37 136 -51 328 -79 304 -44 618
-243 831 -526 72 -95 170 -284 210 -405 87 -266 96 -580 23 -878 -16 -65 -29
-127 -29 -138 0 -19 -64 -180 -80 -204 -4 -5 -29 -53 -56 -105 -26 -52 -64
-117 -84 -145 -58 -80 -57 -84 9 -20 140 136 311 441 365 653 30 112 56 308
56 412 0 335 -85 734 -254 1187 -53 143 -172 414 -200 458 -7 11 -30 52 -51
90 -74 137 -224 353 -326 470 -171 196 -351 324 -559 396 -82 28 -290 36 -385
14z m-635 -1003 c63 -31 116 -58 118 -59 2 0 -4 -15 -12 -32 -9 -16 -16 -36
-15 -43 0 -10 2 -10 6 0 7 17 23 15 23 -4 0 -8 5 -12 10 -9 6 4 27 -5 46 -20
19 -15 42 -24 50 -21 8 3 17 -1 20 -9 4 -8 12 -15 18 -15 7 0 36 -11 64 -25
29 -14 60 -25 71 -25 10 0 24 -6 30 -14 6 -7 29 -16 52 -20 22 -3 42 -13 46
-21 3 -10 12 -13 24 -10 11 4 27 -2 41 -15 12 -11 28 -18 34 -16 6 2 15 1 20
-4 5 -4 45 -20 89 -35 44 -16 90 -35 102 -43 12 -7 26 -11 31 -8 6 3 15 -1 22
-9 7 -8 21 -15 31 -15 10 0 20 -4 23 -9 3 -4 20 -11 37 -15 37 -7 150 -62 224
-109 68 -42 225 -167 225 -178 0 -5 7 -9 15 -9 8 0 15 -4 15 -9 0 -5 26 -36
58 -68 83 -84 212 -276 212 -316 0 -8 3 -17 8 -19 22 -9 90 -213 94 -285 2
-24 5 -43 8 -43 8 0 5 -220 -4 -285 -10 -74 -56 -225 -86 -285 -67 -132 -265
-370 -308 -370 -7 0 -12 -4 -12 -8 0 -8 -51 -37 -138 -81 -55 -28 -114 -51
-146 -56 -20 -4 -36 -11 -36 -15 0 -4 -21 -10 -47 -14 -27 -3 -73 -10 -103
-16 -111 -21 -272 -24 -360 -6 -137 28 -254 103 -255 164 -1 28 6 34 75 63 30
12 62 28 71 36 8 7 21 13 28 13 6 0 28 11 49 25 39 26 114 37 132 19 5 -5 10
-24 12 -42 1 -17 6 -32 11 -32 4 0 6 -4 3 -8 -3 -5 -1 -25 5 -45 19 -70 116
-95 244 -62 111 29 269 141 350 250 17 22 36 46 43 54 41 43 118 238 137 345
18 104 19 159 4 241 -5 33 -12 74 -14 91 -7 45 -60 169 -107 249 -46 78 -41
72 -119 141 -83 73 -110 93 -146 105 -18 6 -33 14 -33 18 0 9 -63 36 -120 51
-25 7 -50 16 -56 21 -6 5 -13 7 -16 4 -2 -3 -20 0 -39 6 -19 5 -92 21 -164 34
-170 31 -261 52 -288 67 -12 6 -23 10 -25 9 -8 -7 -188 43 -206 58 -6 5 -29
14 -51 21 -22 7 -60 28 -84 46 -24 19 -49 34 -55 34 -10 1 -30 17 -139 117
-37 34 -39 35 -58 17 -20 -18 -21 -18 -50 16 -16 19 -45 68 -65 108 l-37 73
17 56 c22 70 148 321 175 350 25 27 25 27 171 -45z m-30 -1496 c52 -19 113
-45 132 -56 10 -6 25 -10 33 -10 8 0 15 -4 15 -8 0 -9 72 -27 140 -36 19 -3
64 -12 100 -21 36 -9 72 -18 80 -20 37 -8 114 -49 145 -77 24 -20 40 -47 50
-83 15 -51 15 -55 -8 -108 -18 -40 -33 -58 -56 -68 -17 -8 -31 -18 -31 -23 0
-5 -31 -6 -69 -4 -52 4 -74 10 -92 27 -12 11 -26 21 -30 21 -10 0 -62 86 -78
130 -22 57 -71 124 -108 149 -57 37 -163 18 -228 -41 -16 -16 -36 -28 -42 -28
-7 0 -13 -7 -13 -15 0 -19 -43 -30 -68 -16 -61 32 -49 252 15 290 25 14 71 13
113 -3z"/>
<path d="M5675 1009 c-4 -6 -5 -12 -2 -15 2 -3 7 2 10 11 7 17 1 20 -8 4z"/>
</g>
</svg>
