<?xml version="1.0" standalone="no"?>
<!DOCTYPE svg PUBLIC "-//W3C//DTD SVG 20010904//EN"
 "http://www.w3.org/TR/2001/REC-SVG-20010904/DTD/svg10.dtd">
<svg version="1.0" xmlns="http://www.w3.org/2000/svg"
 width="1920.000000pt" height="1080.000000pt" viewBox="0 0 1920.000000 1080.000000"
 preserveAspectRatio="xMidYMid meet">

<g transform="translate(0.000000,1080.000000) scale(0.100000,-0.100000)"
fill="#000000" stroke="none">
<path d="M2885 6809 c-120 -18 -200 -54 -358 -164 -87 -61 -208 -266 -245
-416 -27 -107 -71 -165 -118 -153 -15 3 -32 -16 -78 -87 -71 -107 -95 -173
-96 -253 0 -43 -4 -62 -17 -71 -15 -12 -15 -16 2 -71 10 -33 22 -64 27 -71 6
-7 4 -13 -4 -16 -9 -3 -7 -10 8 -21 51 -37 56 -136 15 -306 -12 -47 -21 -102
-21 -124 0 -30 -3 -37 -15 -32 -18 6 -19 1 -5 -25 8 -14 6 -25 -6 -44 -22 -33
-13 -63 42 -149 24 -38 44 -77 44 -86 0 -10 19 -25 47 -39 46 -21 50 -22 108
-6 33 8 84 18 113 22 51 6 54 8 83 57 63 109 98 263 108 466 l6 135 260 52
c494 99 735 195 895 354 49 49 63 72 79 123 58 189 23 411 -102 650 -62 117
-98 154 -191 200 -110 53 -320 101 -335 77 -5 -7 -24 -8 -66 -1 -68 11 -96 11
-180 -1z m258 -564 c71 -15 180 -59 197 -80 8 -10 3 -19 -22 -36 -44 -32 -319
-125 -448 -153 -58 -13 -122 -28 -142 -35 -32 -10 -41 -10 -62 5 -32 20 -32
26 -2 89 12 28 29 68 36 90 14 44 25 55 85 87 87 47 230 60 358 33z"/>
<path d="M6965 6804 c-151 -23 -271 -54 -508 -130 -93 -30 -199 -61 -235 -70
-96 -22 -101 -24 -96 -37 3 -9 -21 -21 -68 -36 -115 -36 -212 -87 -273 -143
-58 -53 -109 -136 -99 -161 3 -8 -1 -40 -9 -71 -10 -36 -12 -58 -5 -62 5 -3 8
-33 6 -65 -3 -54 0 -62 35 -109 22 -30 45 -50 57 -50 11 0 24 -9 30 -20 14
-27 142 -65 265 -80 55 -6 129 -16 165 -22 36 -6 90 -12 120 -14 79 -3 327
-98 367 -140 29 -31 21 -54 -42 -122 -29 -32 -57 -66 -63 -78 -6 -12 -88 -59
-204 -118 -226 -113 -333 -146 -479 -146 -83 0 -89 -1 -109 -27 -18 -24 -20
-37 -17 -132 1 -58 6 -111 10 -118 4 -6 4 -18 1 -27 -7 -19 28 -91 62 -127 23
-24 31 -26 128 -28 56 -1 116 3 132 9 16 7 49 13 74 14 53 3 208 60 335 123
134 67 246 145 333 232 82 83 129 153 169 253 24 57 25 71 21 178 -5 107 -7
119 -34 159 -16 23 -43 65 -61 93 -18 28 -42 56 -55 62 -17 9 -25 23 -29 57
-4 25 -14 59 -22 76 -23 43 -80 90 -127 104 -22 7 -46 22 -54 34 -16 24 -40
35 -127 59 -30 9 -64 25 -74 36 -10 11 -15 20 -10 20 4 0 2 6 -4 14 -15 18 -8
22 61 30 31 4 73 16 94 27 21 10 52 19 69 19 16 0 62 9 100 20 87 26 153 28
185 8 20 -13 39 -14 95 -7 39 4 121 8 184 8 104 1 113 0 106 -16 -9 -22 -27
-150 -25 -178 1 -11 2 -47 3 -81 2 -54 6 -66 40 -107 21 -26 47 -47 57 -47 10
0 21 -8 25 -19 10 -33 158 -72 344 -91 57 -5 121 -15 142 -20 21 -6 55 -10 76
-9 24 1 82 -15 158 -43 174 -66 189 -74 204 -101 18 -34 7 -62 -49 -121 -26
-28 -52 -60 -58 -71 -6 -12 -90 -61 -204 -118 -225 -114 -332 -147 -478 -147
-118 0 -123 -6 -130 -151 -4 -86 -2 -113 9 -124 11 -11 12 -17 2 -28 -12 -16
6 -55 56 -123 l23 -31 109 -2 c59 -1 121 3 137 10 16 6 49 12 74 13 25 2 90
20 145 41 360 136 602 336 692 572 23 63 25 76 19 176 -6 116 -10 127 -67 202
-20 28 -42 62 -48 78 -7 17 -18 27 -31 27 -13 0 -21 9 -25 28 -20 92 -31 118
-70 158 -27 29 -55 47 -86 55 -29 8 -49 20 -55 33 -6 13 -29 28 -64 39 -135
45 -138 47 -149 77 -5 16 -7 31 -3 34 4 2 32 7 64 10 31 4 73 16 94 27 21 10
51 19 66 19 15 0 62 9 104 21 92 25 157 28 181 7 15 -12 32 -14 93 -7 107 11
298 11 359 -1 51 -9 54 -9 116 31 35 22 67 49 70 60 10 31 -4 78 -35 112 -15
18 -31 43 -35 57 -4 14 -31 61 -60 105 -28 44 -54 87 -58 97 -8 24 -131 50
-264 56 -195 8 -362 -22 -669 -122 -147 -47 -240 -73 -358 -101 -23 -5 -26 -9
-16 -15 19 -12 20 -11 -97 -50 -100 -32 -103 -33 -123 -15 -11 10 -20 26 -20
35 0 9 -26 57 -57 107 -32 50 -62 98 -68 108 -17 28 -119 46 -280 50 -82 2
-163 1 -180 -1z"/>
<path d="M16399 6795 c-118 -19 -225 -47 -423 -111 -92 -30 -213 -66 -268 -79
-93 -23 -128 -35 -100 -35 26 0 10 -19 -20 -25 -70 -15 -192 -69 -262 -116
-109 -73 -149 -132 -160 -239 -4 -36 -7 -74 -6 -85 1 -11 2 -47 3 -81 2 -54 6
-66 40 -107 21 -26 47 -47 57 -47 10 0 21 -8 25 -19 10 -33 158 -72 344 -91
57 -5 121 -15 142 -20 21 -6 55 -10 76 -9 24 1 82 -15 158 -43 174 -66 189
-74 204 -101 18 -34 7 -62 -49 -121 -26 -28 -52 -60 -58 -71 -6 -12 -90 -61
-204 -118 -225 -114 -332 -147 -478 -147 -118 0 -123 -6 -130 -151 -4 -86 -2
-113 9 -124 11 -11 12 -17 2 -28 -12 -16 6 -55 56 -123 l23 -31 109 -2 c59 -1
121 3 137 10 16 6 49 12 74 13 25 2 90 20 145 41 360 136 602 336 692 572 23
63 25 76 19 176 -6 116 -10 127 -67 202 -20 28 -42 62 -48 78 -7 17 -18 27
-31 27 -13 0 -21 9 -25 28 -20 92 -31 118 -70 158 -27 29 -55 47 -86 55 -29 8
-49 20 -55 33 -6 13 -29 28 -64 39 -135 45 -138 47 -149 77 -5 16 -7 31 -3 34
4 2 32 7 64 10 31 4 73 16 94 27 21 10 51 19 66 19 15 0 62 9 104 21 92 25
157 28 181 7 15 -12 32 -14 93 -7 107 11 298 11 359 -1 51 -9 54 -9 116 31 35
22 67 49 70 60 10 31 -4 78 -35 112 -15 18 -31 43 -35 57 -4 14 -31 61 -60
105 -28 44 -54 87 -58 97 -16 45 -340 72 -518 43z"/>
<path d="M4715 6712 c-74 -107 -175 -215 -231 -248 -31 -18 -60 -25 -114 -28
-71 -4 -74 -5 -106 -42 -18 -22 -68 -106 -110 -188 -42 -82 -87 -167 -100
-188 -13 -21 -24 -48 -24 -61 0 -13 -67 -163 -149 -333 -185 -385 -261 -558
-261 -597 0 -17 -8 -35 -17 -43 -17 -12 -17 -14 4 -36 11 -13 26 -43 33 -68
19 -76 31 -99 64 -119 17 -11 42 -31 55 -45 27 -29 60 -33 140 -15 34 7 50 16
54 29 3 10 28 30 56 44 57 29 66 42 75 109 12 80 76 260 103 289 17 18 24 34
20 48 -5 21 15 50 37 50 7 0 18 22 25 50 7 27 17 52 22 56 11 7 29 -38 29 -75
0 -16 11 -43 25 -62 14 -19 31 -46 37 -61 11 -25 17 -27 97 -34 87 -7 108 -4
366 52 51 11 94 15 118 10 34 -6 37 -9 37 -42 0 -85 -34 -118 -163 -158 l-67
-21 71 -78 c67 -73 70 -79 65 -115 -6 -36 -5 -38 52 -72 48 -29 67 -34 117
-35 130 -1 281 112 358 266 43 87 46 131 22 269 -22 122 -22 121 32 150 59 31
160 131 191 188 l23 42 -28 12 c-15 7 -43 25 -60 40 -18 15 -51 32 -74 38 -32
9 -44 18 -53 42 -10 27 -14 29 -46 24 -19 -4 -53 -9 -76 -12 l-40 -6 -21 63
c-25 76 -103 474 -134 679 -12 80 -26 153 -31 162 -13 26 -70 52 -193 88 -60
17 -123 40 -140 50 l-30 19 -60 -87z m96 -899 c24 -95 40 -176 36 -179 -17
-17 -437 -58 -437 -42 0 8 87 146 153 243 22 33 73 99 111 147 l71 86 12 -41
c7 -23 31 -120 54 -214z"/>
<path d="M10024 6702 c-37 -54 -88 -119 -114 -146 -50 -55 -157 -129 -172
-120 -5 4 -38 3 -72 0 l-62 -7 -41 -62 c-23 -34 -65 -109 -93 -167 -29 -58
-68 -132 -88 -165 -20 -33 -37 -72 -38 -87 -1 -15 -62 -150 -134 -300 -175
-361 -261 -554 -267 -603 -3 -22 -14 -49 -24 -61 -19 -20 -19 -21 5 -43 13
-13 27 -35 31 -49 22 -93 25 -98 90 -150 71 -56 87 -60 174 -41 34 7 50 16 54
29 3 10 28 30 56 45 53 26 71 52 71 103 1 53 75 261 104 291 21 22 26 34 21
54 -6 21 -2 28 23 41 22 11 32 26 41 60 6 25 15 47 20 50 11 7 31 -47 31 -85
0 -16 14 -43 35 -69 19 -23 35 -48 35 -55 0 -17 120 -29 202 -20 35 4 116 20
181 36 119 29 163 34 206 22 22 -5 23 -9 17 -56 -12 -84 -35 -104 -169 -144
l-59 -18 71 -78 c67 -74 71 -79 65 -115 -5 -35 -3 -39 28 -55 18 -10 49 -27
68 -38 113 -65 327 57 425 241 38 72 40 79 38 160 -1 47 -8 119 -17 160 -13
68 -13 76 1 85 100 64 162 117 200 173 45 66 53 92 29 92 -8 0 -33 16 -56 35
-23 19 -54 38 -69 41 -40 8 -55 18 -70 49 -12 24 -17 27 -50 21 -20 -3 -52 -9
-72 -12 l-37 -6 -21 63 c-21 65 -84 355 -101 464 -5 33 -19 121 -30 197 -11
75 -25 149 -31 165 -13 40 -60 64 -194 103 -60 17 -124 40 -142 50 l-31 18
-68 -96z m96 -853 c29 -115 50 -212 48 -214 -18 -18 -438 -58 -438 -42 0 10
119 201 162 262 45 62 162 204 169 205 3 0 30 -95 59 -211z"/>
<path d="M12363 6749 c-34 -26 -160 -106 -280 -177 -228 -136 -315 -195 -395
-269 -26 -25 -61 -53 -77 -62 -17 -9 -45 -35 -63 -58 -18 -23 -68 -71 -110
-107 -120 -102 -218 -227 -326 -416 -32 -58 -64 -121 -70 -140 -22 -72 -32
-143 -23 -154 6 -6 14 -49 20 -94 24 -188 79 -319 176 -418 107 -110 249 -162
405 -149 47 4 135 10 195 13 61 4 119 12 130 19 19 11 99 24 240 38 33 4 114
24 180 45 66 22 221 66 344 100 321 88 429 134 559 239 38 32 64 46 66 39 2
-7 13 -76 26 -153 16 -102 27 -145 41 -157 10 -10 25 -33 34 -52 60 -126 333
-185 652 -139 65 9 147 16 183 15 70 -1 340 39 430 65 124 35 236 117 294 216
26 43 27 49 13 65 -9 9 -19 31 -23 47 -9 38 -22 55 -44 55 -9 0 -45 30 -78 66
-58 63 -63 66 -94 59 -18 -4 -82 -18 -143 -31 -60 -13 -128 -28 -150 -33 -22
-6 -101 -15 -175 -21 -74 -6 -173 -15 -220 -21 -92 -10 -267 -2 -276 13 -8 12
64 162 123 256 35 57 49 72 63 67 28 -9 174 -24 182 -19 4 3 67 5 140 5 193 0
252 18 433 136 113 73 125 89 109 151 -7 29 -15 37 -42 44 -46 12 -175 135
-168 161 5 19 1 20 -102 13 -59 -3 -182 -9 -274 -13 l-167 -6 -5 24 c-3 13 -7
42 -9 65 l-5 41 52 17 c59 20 141 36 207 41 26 2 69 15 97 29 66 33 167 60
322 86 69 11 153 30 188 41 115 38 232 138 232 198 0 14 3 42 6 61 5 34 4 36
-56 68 -34 19 -80 52 -101 75 -40 41 -89 58 -89 32 0 -12 -5 -12 -34 0 -29 13
-53 11 -212 -11 -312 -43 -435 -65 -574 -101 -74 -20 -191 -48 -260 -64 -142
-31 -197 -49 -255 -83 -49 -30 -109 -91 -101 -104 3 -5 13 -59 22 -118 19
-129 43 -203 85 -262 36 -51 39 -39 -56 -232 -34 -69 -73 -153 -85 -187 -12
-35 -28 -63 -35 -63 -6 0 -18 -12 -25 -27 -8 -16 -15 -29 -16 -31 -6 -11 -60
32 -144 113 -57 55 -121 106 -160 127 -36 20 -130 71 -210 113 -80 43 -163 90
-186 106 l-41 28 -116 -77 c-99 -66 -118 -83 -131 -117 -20 -51 -20 -61 -1
-45 8 7 22 10 30 6 17 -6 20 -47 4 -63 -20 -20 11 -103 56 -149 l43 -42 -21
-21 -21 -20 52 -22 c29 -12 51 -23 50 -25 -11 -11 -496 -125 -587 -138 -80
-12 -118 -22 -130 -34 -15 -16 -33 -17 -211 -12 l-194 5 -15 27 c-14 25 -13
29 23 85 78 117 173 231 301 358 238 239 383 340 762 533 259 132 261 134 268
170 5 30 3 38 -15 52 -17 13 -19 18 -8 22 9 4 13 22 12 62 -2 73 -25 99 -146
161 -53 28 -97 59 -112 78 -22 29 -31 33 -73 33 -42 1 -56 -5 -110 -47z"/>
</g>
</svg>
