<?xml version="1.0" standalone="no"?>
<!DOCTYPE svg PUBLIC "-//W3C//DTD SVG 20010904//EN"
 "http://www.w3.org/TR/2001/REC-SVG-20010904/DTD/svg10.dtd">
<svg version="1.0" xmlns="http://www.w3.org/2000/svg"
 width="1920.000000pt" height="1080.000000pt" viewBox="0 0 1920.000000 1080.000000"
 preserveAspectRatio="xMidYMid meet">

<g transform="translate(0.000000,1080.000000) scale(0.100000,-0.100000)"
fill="#000000" stroke="none">
<path d="M11920 6703 c-214 -33 -472 -90 -535 -118 -16 -7 -52 -16 -80 -20
-27 -4 -61 -12 -75 -19 -14 -7 -142 -50 -285 -95 -239 -77 -263 -86 -294 -120
-32 -35 -33 -38 -27 -101 3 -36 1 -71 -3 -79 -7 -10 -2 -20 14 -33 13 -10 41
-47 63 -81 41 -65 77 -97 110 -97 10 0 26 -6 35 -12 21 -16 14 -62 -31 -187
-42 -116 -49 -122 -105 -81 -40 28 -51 32 -84 25 -131 -24 -222 -115 -223
-222 0 -85 69 -220 138 -270 l39 -29 -19 -64 c-35 -124 -47 -203 -39 -260 8
-62 14 -75 76 -164 41 -58 50 -65 108 -85 35 -11 76 -21 91 -21 84 0 168 148
137 241 -9 28 -7 46 8 94 10 32 24 61 30 63 6 2 11 15 11 29 0 14 7 37 15 51
8 15 21 44 29 65 18 44 61 67 128 67 24 0 66 7 93 16 28 8 145 30 261 49 117
18 231 39 254 45 23 6 60 10 80 8 38 -3 40 -1 114 96 42 54 76 108 76 121 0
29 -48 91 -82 105 -23 10 -26 15 -18 36 8 19 6 24 -6 24 -14 0 -14 2 -3 16 13
16 4 16 -111 10 -69 -4 -201 -18 -295 -31 -251 -35 -247 -35 -258 -1 -7 22 -5
39 11 75 11 25 23 66 27 91 3 25 17 61 30 81 16 25 26 58 31 108 l7 72 58 29
c76 39 202 75 366 105 131 24 388 55 461 55 l39 0 7 -61 c3 -33 2 -68 -3 -78
-7 -13 -5 -20 10 -29 11 -7 40 -43 64 -81 45 -70 80 -101 113 -101 10 0 26 -6
35 -12 21 -16 14 -62 -31 -187 -42 -116 -49 -122 -105 -81 -40 28 -51 32 -84
25 -131 -24 -222 -115 -223 -222 0 -85 69 -220 138 -270 l39 -29 -19 -64 c-35
-124 -47 -203 -39 -260 8 -62 14 -75 76 -164 41 -58 50 -65 108 -85 35 -11 76
-21 91 -21 84 0 168 148 137 241 -9 28 -7 46 8 94 10 32 24 61 30 63 6 2 11
15 11 29 0 14 7 37 15 51 8 15 21 44 29 65 18 44 61 67 128 67 24 0 66 7 93
16 28 8 145 30 261 49 117 18 231 39 254 45 23 6 60 10 80 8 38 -3 40 -1 114
96 42 54 76 108 76 121 0 29 -48 91 -82 105 -23 10 -26 15 -18 36 8 19 6 24
-6 24 -14 0 -14 2 -3 16 13 16 4 16 -111 10 -69 -4 -201 -18 -295 -31 -251
-35 -247 -35 -258 -1 -7 22 -5 39 11 75 11 25 23 66 27 91 3 25 17 61 30 81
16 25 26 58 31 108 l7 72 58 29 c157 80 602 160 884 160 52 0 103 4 113 8 9 5
31 15 47 23 39 19 54 71 36 128 -8 30 -29 56 -78 98 -37 32 -86 77 -109 100
-24 23 -60 47 -80 53 -49 17 -319 7 -439 -15 -111 -20 -367 -82 -403 -97 -15
-6 -54 -17 -87 -24 -33 -7 -148 -42 -255 -78 -107 -36 -198 -66 -202 -66 -3 0
-12 16 -18 35 -8 23 -35 55 -78 93 -36 31 -83 74 -104 95 -60 59 -88 67 -240
66 -73 -1 -144 -3 -158 -6z"/>
<path d="M6279 6685 c-118 -19 -225 -47 -423 -111 -92 -30 -213 -66 -268 -79
-93 -23 -128 -35 -100 -35 26 0 10 -19 -20 -25 -70 -15 -192 -69 -262 -116
-109 -73 -149 -132 -160 -239 -4 -36 -7 -74 -6 -85 1 -11 2 -47 3 -81 2 -54 6
-66 40 -107 21 -26 47 -47 57 -47 10 0 21 -8 25 -19 10 -33 158 -72 344 -91
57 -5 121 -15 142 -20 21 -6 55 -10 76 -9 24 1 82 -15 158 -43 174 -66 189
-74 204 -101 18 -34 7 -62 -49 -121 -26 -28 -52 -60 -58 -71 -6 -12 -90 -61
-204 -118 -225 -114 -332 -147 -478 -147 -118 0 -123 -6 -130 -151 -4 -86 -2
-113 9 -124 11 -11 12 -17 2 -28 -12 -16 6 -55 56 -123 l23 -31 109 -2 c59 -1
121 3 137 10 16 6 49 12 74 13 25 2 90 20 145 41 360 136 602 336 692 572 23
63 25 76 19 176 -6 116 -10 127 -67 202 -20 28 -42 62 -48 78 -7 17 -18 27
-31 27 -13 0 -21 9 -25 28 -20 92 -31 118 -70 158 -27 29 -55 47 -86 55 -29 8
-49 20 -55 33 -6 13 -29 28 -64 39 -135 45 -138 47 -149 77 -5 16 -7 31 -3 34
4 2 32 7 64 10 31 4 73 16 94 27 21 10 51 19 66 19 15 0 62 9 104 21 92 25
157 28 181 7 15 -12 32 -14 93 -7 41 4 122 8 178 8 l104 1 55 -55 c38 -38 66
-57 91 -61 42 -8 299 2 460 17 62 6 115 9 118 6 3 -3 -10 -40 -29 -84 -19 -43
-38 -93 -42 -112 -4 -19 -18 -43 -31 -55 -16 -14 -40 -64 -68 -146 -24 -69
-67 -187 -95 -262 -70 -189 -82 -236 -88 -365 -5 -101 -3 -120 22 -210 15 -54
36 -115 46 -135 11 -21 19 -45 19 -56 0 -11 18 -28 53 -46 69 -37 106 -58 139
-80 22 -15 38 -17 75 -11 102 15 157 61 169 140 9 60 -9 101 -53 122 -19 9
-46 33 -60 55 l-26 38 18 93 c18 94 53 200 80 241 8 12 28 62 44 109 17 48 39
101 51 117 11 16 30 55 40 86 11 31 33 77 48 103 16 25 39 78 52 116 13 39 49
131 80 205 32 74 64 152 71 174 8 21 18 40 24 42 38 12 511 64 589 64 l96 0
-6 -42 c-4 -24 -15 -70 -24 -104 -9 -33 -14 -69 -10 -78 3 -10 -6 -59 -19
-109 -25 -90 -26 -100 -26 -423 l0 -331 58 -63 c55 -62 57 -65 35 -73 -12 -4
-24 -9 -26 -11 -6 -7 116 -242 142 -273 14 -17 40 -36 58 -43 18 -7 43 -22 56
-33 19 -18 43 -22 155 -28 72 -5 147 -10 165 -13 26 -4 69 11 197 68 289 129
429 234 551 416 47 71 74 101 95 109 23 8 29 16 29 38 0 46 11 55 50 40 21 -8
34 -8 37 -2 2 6 18 35 36 65 17 30 56 100 85 155 30 55 73 134 97 175 36 65
45 90 59 188 10 62 26 141 36 176 22 78 17 113 -39 265 -22 60 -46 138 -52
175 -12 64 -16 70 -75 125 -87 79 -106 88 -139 67 -48 -31 -66 -74 -59 -138 6
-55 5 -59 -23 -85 -25 -24 -31 -38 -37 -98 -17 -167 -74 -372 -142 -507 -104
-209 -279 -392 -476 -497 -77 -42 -224 -95 -296 -106 -41 -7 -43 -6 -57 28
-27 64 -37 131 -37 247 -1 133 14 237 49 334 30 84 28 99 -40 271 -45 115 -56
135 -100 175 -47 43 -49 48 -56 110 -4 36 -12 74 -18 85 -7 11 -53 61 -103
110 l-90 90 -148 3 c-123 3 -196 -2 -437 -32 -160 -20 -303 -38 -320 -40 -21
-2 -39 4 -58 20 -22 18 -41 24 -78 24 -46 0 -50 -2 -66 -34 -15 -32 -21 -35
-67 -40 -247 -26 -393 -38 -521 -45 -169 -10 -167 -11 -204 63 -21 43 -24 45
-94 62 -96 23 -324 28 -438 9z"/>
</g>
</svg>
